<?xml version="1.0" encoding="UTF-8"?>
<!DOCTYPE svg PUBLIC "-//W3C//DTD SVG 1.1//EN" "http://www.w3.org/Graphics/SVG/1.1/DTD/svg11.dtd">
<svg xmlns="http://www.w3.org/2000/svg" xmlns:xlink="http://www.w3.org/1999/xlink" version="1.1" width="311px" height="311px" viewBox="-0.5 -0.5 361 361"><defs><style type="text/css">@import url(https://fonts.googleapis.com/css?family=Nunito);&#xa;</style></defs><g><rect x="0" y="0" width="360" height="360" rx="54" ry="54" fill="none" stroke="#000000" pointer-events="all"/><path d="M 230.11 77.93 C 230.22 75.74 231.99 74.02 234.14 74.02 L 325.87 74.02 C 328.02 74.02 329.79 75.74 329.9 77.93 L 330 101.54 C 330 102.65 329.56 103.71 328.78 104.48 C 328.01 105.26 326.96 105.68 325.87 105.65 L 234.14 105.65 C 231.91 105.65 230.11 103.81 230.11 101.54 Z M 242.19 98.15 C 242.19 96.17 240.62 94.56 238.67 94.56 C 236.72 94.56 235.15 96.17 235.15 98.15 C 235.15 100.14 236.72 101.75 238.67 101.75 C 240.62 101.75 242.19 100.14 242.19 98.15 Z M 302.61 97.85 C 302 97.85 301.5 98.35 301.5 98.97 C 301.5 99.6 302 100.1 302.61 100.1 L 322.75 100.1 C 323.36 100.1 323.86 99.6 323.86 98.97 C 323.86 98.35 323.36 97.85 322.75 97.85 Z M 302.61 93.94 C 302 93.94 301.5 94.45 301.5 95.07 C 301.5 95.7 302 96.2 302.61 96.2 L 322.75 96.2 C 323.36 96.2 323.86 95.7 323.86 95.07 C 323.86 94.45 323.36 93.94 322.75 93.94 Z M 302.61 89.94 C 302 89.94 301.5 90.44 301.5 91.07 C 301.5 91.69 302 92.2 302.61 92.2 L 322.75 92.2 C 323.36 92.2 323.86 91.69 323.86 91.07 C 323.86 90.44 323.36 89.94 322.75 89.94 Z M 230 43.69 C 230.11 41.5 231.88 39.79 234.03 39.79 L 325.76 39.79 C 327.91 39.79 329.68 41.5 329.79 43.69 L 329.89 67.31 C 329.89 68.42 329.45 69.48 328.67 70.25 C 327.9 71.02 326.85 71.44 325.76 71.42 L 234.03 71.42 C 231.8 71.42 230 69.58 230 67.31 Z M 242.08 63.92 C 242.08 61.93 240.51 60.33 238.56 60.33 C 236.61 60.33 235.03 61.93 235.03 63.92 C 235.03 65.9 236.61 67.51 238.56 67.51 C 240.51 67.51 242.08 65.9 242.08 63.92 Z M 302.5 63.61 C 301.89 63.61 301.39 64.12 301.39 64.74 C 301.39 65.37 301.89 65.87 302.5 65.87 L 322.64 65.87 C 323.25 65.87 323.75 65.37 323.75 64.74 C 323.75 64.12 323.25 63.61 322.64 63.61 Z M 302.5 59.71 C 301.89 59.71 301.39 60.22 301.39 60.84 C 301.39 61.46 301.89 61.97 302.5 61.97 L 322.64 61.97 C 323.25 61.97 323.75 61.46 323.75 60.84 C 323.75 60.22 323.25 59.71 322.64 59.71 Z M 302.5 55.71 C 301.89 55.71 301.39 56.21 301.39 56.83 C 301.39 57.46 301.89 57.96 302.5 57.96 L 322.64 57.96 C 323.25 57.96 323.75 57.46 323.75 56.83 C 323.75 56.21 323.25 55.71 322.64 55.71 Z M 230.11 112.04 C 230.22 109.85 231.99 108.13 234.14 108.13 L 325.87 108.13 C 328.02 108.13 329.79 109.85 329.9 112.04 L 330 135.65 C 330 136.76 329.56 137.82 328.78 138.59 C 328.01 139.37 326.96 139.79 325.87 139.76 L 234.14 139.76 C 233.07 139.76 232.05 139.33 231.29 138.56 C 230.54 137.79 230.11 136.74 230.11 135.65 Z M 242.19 132.26 C 242.19 130.28 240.62 128.67 238.67 128.67 C 236.72 128.67 235.15 130.28 235.15 132.26 C 235.15 134.25 236.72 135.86 238.67 135.86 C 240.62 135.86 242.19 134.25 242.19 132.26 Z M 302.61 131.96 C 302 131.96 301.5 132.46 301.5 133.08 C 301.5 133.71 302 134.21 302.61 134.21 L 322.75 134.21 C 323.36 134.21 323.86 133.71 323.86 133.08 C 323.86 132.46 323.36 131.96 322.75 131.96 Z M 302.61 128.05 C 302 128.05 301.5 128.56 301.5 129.18 C 301.5 129.81 302 130.31 302.61 130.31 L 322.75 130.31 C 323.36 130.31 323.86 129.81 323.86 129.18 C 323.86 128.56 323.36 128.05 322.75 128.05 Z M 302.61 124.05 C 302 124.05 301.5 124.55 301.5 125.18 C 301.5 125.8 302 126.31 302.61 126.31 L 322.75 126.31 C 323.36 126.31 323.86 125.8 323.86 125.18 C 323.86 124.55 323.36 124.05 322.75 124.05 Z" fill="#00bef2" stroke="none" pointer-events="all"/><path d="M 30.11 77.93 C 30.22 75.74 31.99 74.02 34.14 74.02 L 125.87 74.02 C 128.02 74.02 129.79 75.74 129.9 77.93 L 130 101.54 C 130 102.65 129.56 103.71 128.78 104.48 C 128.01 105.26 126.96 105.68 125.87 105.65 L 34.14 105.65 C 31.91 105.65 30.11 103.81 30.11 101.54 Z M 42.19 98.15 C 42.19 96.17 40.62 94.56 38.67 94.56 C 36.72 94.56 35.15 96.17 35.15 98.15 C 35.15 100.14 36.72 101.75 38.67 101.75 C 40.62 101.75 42.19 100.14 42.19 98.15 Z M 102.61 97.85 C 102 97.85 101.5 98.35 101.5 98.97 C 101.5 99.6 102 100.1 102.61 100.1 L 122.75 100.1 C 123.36 100.1 123.86 99.6 123.86 98.97 C 123.86 98.35 123.36 97.85 122.75 97.85 Z M 102.61 93.94 C 102 93.94 101.5 94.45 101.5 95.07 C 101.5 95.7 102 96.2 102.61 96.2 L 122.75 96.2 C 123.36 96.2 123.86 95.7 123.86 95.07 C 123.86 94.45 123.36 93.94 122.75 93.94 Z M 102.61 89.94 C 102 89.94 101.5 90.44 101.5 91.07 C 101.5 91.69 102 92.2 102.61 92.2 L 122.75 92.2 C 123.36 92.2 123.86 91.69 123.86 91.07 C 123.86 90.44 123.36 89.94 122.75 89.94 Z M 30 43.69 C 30.11 41.5 31.88 39.79 34.03 39.79 L 125.76 39.79 C 127.91 39.79 129.68 41.5 129.79 43.69 L 129.89 67.31 C 129.89 68.42 129.45 69.48 128.67 70.25 C 127.9 71.02 126.85 71.44 125.76 71.42 L 34.03 71.42 C 31.8 71.42 30 69.58 30 67.31 Z M 42.08 63.92 C 42.08 61.93 40.51 60.33 38.56 60.33 C 36.61 60.33 35.03 61.93 35.03 63.92 C 35.03 65.9 36.61 67.51 38.56 67.51 C 40.51 67.51 42.08 65.9 42.08 63.92 Z M 102.5 63.61 C 101.89 63.61 101.39 64.12 101.39 64.74 C 101.39 65.37 101.89 65.87 102.5 65.87 L 122.64 65.87 C 123.25 65.87 123.75 65.37 123.75 64.74 C 123.75 64.12 123.25 63.61 122.64 63.61 Z M 102.5 59.71 C 101.89 59.71 101.39 60.22 101.39 60.84 C 101.39 61.46 101.89 61.97 102.5 61.97 L 122.64 61.97 C 123.25 61.97 123.75 61.46 123.75 60.84 C 123.75 60.22 123.25 59.71 122.64 59.71 Z M 102.5 55.71 C 101.89 55.71 101.39 56.21 101.39 56.83 C 101.39 57.46 101.89 57.96 102.5 57.96 L 122.64 57.96 C 123.25 57.96 123.75 57.46 123.75 56.83 C 123.75 56.21 123.25 55.71 122.64 55.71 Z M 30.11 112.04 C 30.22 109.85 31.99 108.13 34.14 108.13 L 125.87 108.13 C 128.02 108.13 129.79 109.85 129.9 112.04 L 130 135.65 C 130 136.76 129.56 137.82 128.78 138.59 C 128.01 139.37 126.96 139.79 125.87 139.76 L 34.14 139.76 C 33.07 139.76 32.05 139.33 31.29 138.56 C 30.54 137.79 30.11 136.74 30.11 135.65 Z M 42.19 132.26 C 42.19 130.28 40.62 128.67 38.67 128.67 C 36.72 128.67 35.15 130.28 35.15 132.26 C 35.15 134.25 36.72 135.86 38.67 135.86 C 40.62 135.86 42.19 134.25 42.19 132.26 Z M 102.61 131.96 C 102 131.96 101.5 132.46 101.5 133.08 C 101.5 133.71 102 134.21 102.61 134.21 L 122.75 134.21 C 123.36 134.21 123.86 133.71 123.86 133.08 C 123.86 132.46 123.36 131.96 122.75 131.96 Z M 102.61 128.05 C 102 128.05 101.5 128.56 101.5 129.18 C 101.5 129.81 102 130.31 102.61 130.31 L 122.75 130.31 C 123.36 130.31 123.86 129.81 123.86 129.18 C 123.86 128.56 123.36 128.05 122.75 128.05 Z M 102.61 124.05 C 102 124.05 101.5 124.55 101.5 125.18 C 101.5 125.8 102 126.31 102.61 126.31 L 122.75 126.31 C 123.36 126.31 123.86 125.8 123.86 125.18 C 123.86 124.55 123.36 124.05 122.75 124.05 Z" fill="#00bef2" stroke="none" pointer-events="all"/><rect x="100" y="19.79" width="160" height="20" fill="none" stroke="none" pointer-events="all"/><g fill="#000000" font-family="Nunito" text-anchor="middle" font-size="16px"><text x="179.5" y="26.79">On Prem Datacenter</text></g><path d="M 30.11 181.14 C 30.22 178.95 31.99 177.23 34.14 177.23 L 125.87 177.23 C 128.02 177.23 129.79 178.95 129.9 181.14 L 130 204.75 C 130 205.86 129.56 206.92 128.78 207.69 C 128.01 208.47 126.96 208.89 125.87 208.86 L 34.14 208.86 C 31.91 208.86 30.11 207.02 30.11 204.75 Z M 42.19 201.36 C 42.19 199.38 40.62 197.77 38.67 197.77 C 36.72 197.77 35.15 199.38 35.15 201.36 C 35.15 203.35 36.72 204.96 38.67 204.96 C 40.62 204.96 42.19 203.35 42.19 201.36 Z M 102.61 201.06 C 102 201.06 101.5 201.56 101.5 202.18 C 101.5 202.81 102 203.31 102.61 203.31 L 122.75 203.31 C 123.36 203.31 123.86 202.81 123.86 202.18 C 123.86 201.56 123.36 201.06 122.75 201.06 Z M 102.61 197.15 C 102 197.15 101.5 197.66 101.5 198.28 C 101.5 198.91 102 199.41 102.61 199.41 L 122.75 199.41 C 123.36 199.41 123.86 198.91 123.86 198.28 C 123.86 197.66 123.36 197.15 122.75 197.15 Z M 102.61 193.15 C 102 193.15 101.5 193.65 101.5 194.28 C 101.5 194.9 102 195.41 102.61 195.41 L 122.75 195.41 C 123.36 195.41 123.86 194.9 123.86 194.28 C 123.86 193.65 123.36 193.15 122.75 193.15 Z M 30 146.9 C 30.11 144.71 31.88 143 34.03 143 L 125.76 143 C 127.91 143 129.68 144.71 129.79 146.9 L 129.89 170.52 C 129.89 171.63 129.45 172.69 128.67 173.46 C 127.9 174.23 126.85 174.65 125.76 174.63 L 34.03 174.63 C 31.8 174.63 30 172.79 30 170.52 Z M 42.08 167.13 C 42.08 165.14 40.51 163.54 38.56 163.54 C 36.61 163.54 35.03 165.14 35.03 167.13 C 35.03 169.11 36.61 170.72 38.56 170.72 C 40.51 170.72 42.08 169.11 42.08 167.13 Z M 102.5 166.82 C 101.89 166.82 101.39 167.33 101.39 167.95 C 101.39 168.58 101.89 169.08 102.5 169.08 L 122.64 169.08 C 123.25 169.08 123.75 168.58 123.75 167.95 C 123.75 167.33 123.25 166.82 122.64 166.82 Z M 102.5 162.92 C 101.89 162.92 101.39 163.43 101.39 164.05 C 101.39 164.67 101.89 165.18 102.5 165.18 L 122.64 165.18 C 123.25 165.18 123.75 164.67 123.75 164.05 C 123.75 163.43 123.25 162.92 122.64 162.92 Z M 102.5 158.92 C 101.89 158.92 101.39 159.42 101.39 160.04 C 101.39 160.67 101.89 161.17 102.5 161.17 L 122.64 161.17 C 123.25 161.17 123.75 160.67 123.75 160.04 C 123.75 159.42 123.25 158.92 122.64 158.92 Z M 30.11 215.25 C 30.22 213.06 31.99 211.34 34.14 211.34 L 125.87 211.34 C 128.02 211.34 129.79 213.06 129.9 215.25 L 130 238.86 C 130 239.97 129.56 241.03 128.78 241.8 C 128.01 242.58 126.96 243 125.87 242.97 L 34.14 242.97 C 33.07 242.97 32.05 242.54 31.29 241.77 C 30.54 241 30.11 239.95 30.11 238.86 Z M 42.19 235.47 C 42.19 233.49 40.62 231.88 38.67 231.88 C 36.72 231.88 35.15 233.49 35.15 235.47 C 35.15 237.46 36.72 239.07 38.67 239.07 C 40.62 239.07 42.19 237.46 42.19 235.47 Z M 102.61 235.17 C 102 235.17 101.5 235.67 101.5 236.29 C 101.5 236.92 102 237.42 102.61 237.42 L 122.75 237.42 C 123.36 237.42 123.86 236.92 123.86 236.29 C 123.86 235.67 123.36 235.17 122.75 235.17 Z M 102.61 231.26 C 102 231.26 101.5 231.77 101.5 232.39 C 101.5 233.02 102 233.52 102.61 233.52 L 122.75 233.52 C 123.36 233.52 123.86 233.02 123.86 232.39 C 123.86 231.77 123.36 231.26 122.75 231.26 Z M 102.61 227.26 C 102 227.26 101.5 227.76 101.5 228.39 C 101.5 229.01 102 229.52 102.61 229.52 L 122.75 229.52 C 123.36 229.52 123.86 229.01 123.86 228.39 C 123.86 227.76 123.36 227.26 122.75 227.26 Z" fill="#00bef2" stroke="none" pointer-events="all"/><path d="M 30.11 285.14 C 30.22 282.95 31.99 281.23 34.14 281.23 L 125.87 281.23 C 128.02 281.23 129.79 282.95 129.9 285.14 L 130 308.75 C 130 309.86 129.56 310.92 128.78 311.69 C 128.01 312.47 126.96 312.89 125.87 312.86 L 34.14 312.86 C 31.91 312.86 30.11 311.02 30.11 308.75 Z M 42.19 305.36 C 42.19 303.38 40.62 301.77 38.67 301.77 C 36.72 301.77 35.15 303.38 35.15 305.36 C 35.15 307.35 36.72 308.96 38.67 308.96 C 40.62 308.96 42.19 307.35 42.19 305.36 Z M 102.61 305.06 C 102 305.06 101.5 305.56 101.5 306.18 C 101.5 306.81 102 307.31 102.61 307.31 L 122.75 307.31 C 123.36 307.31 123.86 306.81 123.86 306.18 C 123.86 305.56 123.36 305.06 122.75 305.06 Z M 102.61 301.15 C 102 301.15 101.5 301.66 101.5 302.28 C 101.5 302.91 102 303.41 102.61 303.41 L 122.75 303.41 C 123.36 303.41 123.86 302.91 123.86 302.28 C 123.86 301.66 123.36 301.15 122.75 301.15 Z M 102.61 297.15 C 102 297.15 101.5 297.65 101.5 298.28 C 101.5 298.9 102 299.41 102.61 299.41 L 122.75 299.41 C 123.36 299.41 123.86 298.9 123.86 298.28 C 123.86 297.65 123.36 297.15 122.75 297.15 Z M 30 250.9 C 30.11 248.71 31.88 247 34.03 247 L 125.76 247 C 127.91 247 129.68 248.71 129.79 250.9 L 129.89 274.52 C 129.89 275.63 129.45 276.69 128.67 277.46 C 127.9 278.23 126.85 278.65 125.76 278.63 L 34.03 278.63 C 31.8 278.63 30 276.79 30 274.52 Z M 42.08 271.13 C 42.08 269.14 40.51 267.54 38.56 267.54 C 36.61 267.54 35.03 269.14 35.03 271.13 C 35.03 273.11 36.61 274.72 38.56 274.72 C 40.51 274.72 42.08 273.11 42.08 271.13 Z M 102.5 270.82 C 101.89 270.82 101.39 271.33 101.39 271.95 C 101.39 272.58 101.89 273.08 102.5 273.08 L 122.64 273.08 C 123.25 273.08 123.75 272.58 123.75 271.95 C 123.75 271.33 123.25 270.82 122.64 270.82 Z M 102.5 266.92 C 101.89 266.92 101.39 267.43 101.39 268.05 C 101.39 268.67 101.89 269.18 102.5 269.18 L 122.64 269.18 C 123.25 269.18 123.75 268.67 123.75 268.05 C 123.75 267.43 123.25 266.92 122.64 266.92 Z M 102.5 262.92 C 101.89 262.92 101.39 263.42 101.39 264.04 C 101.39 264.67 101.89 265.17 102.5 265.17 L 122.64 265.17 C 123.25 265.17 123.75 264.67 123.75 264.04 C 123.75 263.42 123.25 262.92 122.64 262.92 Z M 30.11 319.25 C 30.22 317.06 31.99 315.34 34.14 315.34 L 125.87 315.34 C 128.02 315.34 129.79 317.06 129.9 319.25 L 130 342.86 C 130 343.97 129.56 345.03 128.78 345.8 C 128.01 346.58 126.96 347 125.87 346.97 L 34.14 346.97 C 33.07 346.97 32.05 346.54 31.29 345.77 C 30.54 345 30.11 343.95 30.11 342.86 Z M 42.19 339.47 C 42.19 337.49 40.62 335.88 38.67 335.88 C 36.72 335.88 35.15 337.49 35.15 339.47 C 35.15 341.46 36.72 343.07 38.67 343.07 C 40.62 343.07 42.19 341.46 42.19 339.47 Z M 102.61 339.17 C 102 339.17 101.5 339.67 101.5 340.29 C 101.5 340.92 102 341.42 102.61 341.42 L 122.75 341.42 C 123.36 341.42 123.86 340.92 123.86 340.29 C 123.86 339.67 123.36 339.17 122.75 339.17 Z M 102.61 335.26 C 102 335.26 101.5 335.77 101.5 336.39 C 101.5 337.02 102 337.52 102.61 337.52 L 122.75 337.52 C 123.36 337.52 123.86 337.02 123.86 336.39 C 123.86 335.77 123.36 335.26 122.75 335.26 Z M 102.61 331.26 C 102 331.26 101.5 331.76 101.5 332.39 C 101.5 333.01 102 333.52 102.61 333.52 L 122.75 333.52 C 123.36 333.52 123.86 333.01 123.86 332.39 C 123.86 331.76 123.36 331.26 122.75 331.26 Z" fill="#00bef2" stroke="none" pointer-events="all"/><path d="M 230.11 181.14 C 230.22 178.95 231.99 177.23 234.14 177.23 L 325.87 177.23 C 328.02 177.23 329.79 178.95 329.9 181.14 L 330 204.75 C 330 205.86 329.56 206.92 328.78 207.69 C 328.01 208.47 326.96 208.89 325.87 208.86 L 234.14 208.86 C 231.91 208.86 230.11 207.02 230.11 204.75 Z M 242.19 201.36 C 242.19 199.38 240.62 197.77 238.67 197.77 C 236.72 197.77 235.15 199.38 235.15 201.36 C 235.15 203.35 236.72 204.96 238.67 204.96 C 240.62 204.96 242.19 203.35 242.19 201.36 Z M 302.61 201.06 C 302 201.06 301.5 201.56 301.5 202.18 C 301.5 202.81 302 203.31 302.61 203.31 L 322.75 203.31 C 323.36 203.31 323.86 202.81 323.86 202.18 C 323.86 201.56 323.36 201.06 322.75 201.06 Z M 302.61 197.15 C 302 197.15 301.5 197.66 301.5 198.28 C 301.5 198.91 302 199.41 302.61 199.41 L 322.75 199.41 C 323.36 199.41 323.86 198.91 323.86 198.28 C 323.86 197.66 323.36 197.15 322.75 197.15 Z M 302.61 193.15 C 302 193.15 301.5 193.65 301.5 194.28 C 301.5 194.9 302 195.41 302.61 195.41 L 322.75 195.41 C 323.36 195.41 323.86 194.9 323.86 194.28 C 323.86 193.65 323.36 193.15 322.75 193.15 Z M 230 146.9 C 230.11 144.71 231.88 143 234.03 143 L 325.76 143 C 327.91 143 329.68 144.71 329.79 146.9 L 329.89 170.52 C 329.89 171.63 329.45 172.69 328.67 173.46 C 327.9 174.23 326.85 174.65 325.76 174.63 L 234.03 174.63 C 231.8 174.63 230 172.79 230 170.52 Z M 242.08 167.13 C 242.08 165.14 240.51 163.54 238.56 163.54 C 236.61 163.54 235.03 165.14 235.03 167.13 C 235.03 169.11 236.61 170.72 238.56 170.72 C 240.51 170.72 242.08 169.11 242.08 167.13 Z M 302.5 166.82 C 301.89 166.82 301.39 167.33 301.39 167.95 C 301.39 168.58 301.89 169.08 302.5 169.08 L 322.64 169.08 C 323.25 169.08 323.75 168.58 323.75 167.95 C 323.75 167.33 323.25 166.82 322.64 166.82 Z M 302.5 162.92 C 301.89 162.92 301.39 163.43 301.39 164.05 C 301.39 164.67 301.89 165.18 302.5 165.18 L 322.64 165.18 C 323.25 165.18 323.75 164.67 323.75 164.05 C 323.75 163.43 323.25 162.92 322.64 162.92 Z M 302.5 158.92 C 301.89 158.92 301.39 159.42 301.39 160.04 C 301.39 160.67 301.89 161.17 302.5 161.17 L 322.64 161.17 C 323.25 161.17 323.75 160.67 323.75 160.04 C 323.75 159.42 323.25 158.92 322.64 158.92 Z M 230.11 215.25 C 230.22 213.06 231.99 211.34 234.14 211.34 L 325.87 211.34 C 328.02 211.34 329.79 213.06 329.9 215.25 L 330 238.86 C 330 239.97 329.56 241.03 328.78 241.8 C 328.01 242.58 326.96 243 325.87 242.97 L 234.14 242.97 C 233.07 242.97 232.05 242.54 231.29 241.77 C 230.54 241 230.11 239.95 230.11 238.86 Z M 242.19 235.47 C 242.19 233.49 240.62 231.88 238.67 231.88 C 236.72 231.88 235.15 233.49 235.15 235.47 C 235.15 237.46 236.72 239.07 238.67 239.07 C 240.62 239.07 242.19 237.46 242.19 235.47 Z M 302.61 235.17 C 302 235.17 301.5 235.67 301.5 236.29 C 301.5 236.92 302 237.42 302.61 237.42 L 322.75 237.42 C 323.36 237.42 323.86 236.92 323.86 236.29 C 323.86 235.67 323.36 235.17 322.75 235.17 Z M 302.61 231.26 C 302 231.26 301.5 231.77 301.5 232.39 C 301.5 233.02 302 233.52 302.61 233.52 L 322.75 233.52 C 323.36 233.52 323.86 233.02 323.86 232.39 C 323.86 231.77 323.36 231.26 322.75 231.26 Z M 302.61 227.26 C 302 227.26 301.5 227.76 301.5 228.39 C 301.5 229.01 302 229.52 302.61 229.52 L 322.75 229.52 C 323.36 229.52 323.86 229.01 323.86 228.39 C 323.86 227.76 323.36 227.26 322.75 227.26 Z" fill="#00bef2" stroke="none" pointer-events="all"/><path d="M 230.11 285.14 C 230.22 282.95 231.99 281.23 234.14 281.23 L 325.87 281.23 C 328.02 281.23 329.79 282.95 329.9 285.14 L 330 308.75 C 330 309.86 329.56 310.92 328.78 311.69 C 328.01 312.47 326.96 312.89 325.87 312.86 L 234.14 312.86 C 231.91 312.86 230.11 311.02 230.11 308.75 Z M 242.19 305.36 C 242.19 303.38 240.62 301.77 238.67 301.77 C 236.72 301.77 235.15 303.38 235.15 305.36 C 235.15 307.35 236.72 308.96 238.67 308.96 C 240.62 308.96 242.19 307.35 242.19 305.36 Z M 302.61 305.06 C 302 305.06 301.5 305.56 301.5 306.18 C 301.5 306.81 302 307.31 302.61 307.31 L 322.75 307.31 C 323.36 307.31 323.86 306.81 323.86 306.18 C 323.86 305.56 323.36 305.06 322.75 305.06 Z M 302.61 301.15 C 302 301.15 301.5 301.66 301.5 302.28 C 301.5 302.91 302 303.41 302.61 303.41 L 322.75 303.41 C 323.36 303.41 323.86 302.91 323.86 302.28 C 323.86 301.66 323.36 301.15 322.75 301.15 Z M 302.61 297.15 C 302 297.15 301.5 297.65 301.5 298.28 C 301.5 298.9 302 299.41 302.61 299.41 L 322.75 299.41 C 323.36 299.41 323.86 298.9 323.86 298.28 C 323.86 297.65 323.36 297.15 322.75 297.15 Z M 230 250.9 C 230.11 248.71 231.88 247 234.03 247 L 325.76 247 C 327.91 247 329.68 248.71 329.79 250.9 L 329.89 274.52 C 329.89 275.63 329.45 276.69 328.67 277.46 C 327.9 278.23 326.85 278.65 325.76 278.63 L 234.03 278.63 C 231.8 278.63 230 276.79 230 274.52 Z M 242.08 271.13 C 242.08 269.14 240.51 267.54 238.56 267.54 C 236.61 267.54 235.03 269.14 235.03 271.13 C 235.03 273.11 236.61 274.72 238.56 274.72 C 240.51 274.72 242.08 273.11 242.08 271.13 Z M 302.5 270.82 C 301.89 270.82 301.39 271.33 301.39 271.95 C 301.39 272.58 301.89 273.08 302.5 273.08 L 322.64 273.08 C 323.25 273.08 323.75 272.58 323.75 271.95 C 323.75 271.33 323.25 270.82 322.64 270.82 Z M 302.5 266.92 C 301.89 266.92 301.39 267.43 301.39 268.05 C 301.39 268.67 301.89 269.18 302.5 269.18 L 322.64 269.18 C 323.25 269.18 323.75 268.67 323.75 268.05 C 323.75 267.43 323.25 266.92 322.64 266.92 Z M 302.5 262.92 C 301.89 262.92 301.39 263.42 301.39 264.04 C 301.39 264.67 301.89 265.17 302.5 265.17 L 322.64 265.17 C 323.25 265.17 323.75 264.67 323.75 264.04 C 323.75 263.42 323.25 262.92 322.64 262.92 Z M 230.11 319.25 C 230.22 317.06 231.99 315.34 234.14 315.34 L 325.87 315.34 C 328.02 315.34 329.79 317.06 329.9 319.25 L 330 342.86 C 330 343.97 329.56 345.03 328.78 345.8 C 328.01 346.58 326.96 347 325.87 346.97 L 234.14 346.97 C 233.07 346.97 232.05 346.54 231.29 345.77 C 230.54 345 230.11 343.95 230.11 342.86 Z M 242.19 339.47 C 242.19 337.49 240.62 335.88 238.67 335.88 C 236.72 335.88 235.15 337.49 235.15 339.47 C 235.15 341.46 236.72 343.07 238.67 343.07 C 240.62 343.07 242.19 341.46 242.19 339.47 Z M 302.61 339.17 C 302 339.17 301.5 339.67 301.5 340.29 C 301.5 340.92 302 341.42 302.61 341.42 L 322.75 341.42 C 323.36 341.42 323.86 340.92 323.86 340.29 C 323.86 339.67 323.36 339.17 322.75 339.17 Z M 302.61 335.26 C 302 335.26 301.5 335.77 301.5 336.39 C 301.5 337.02 302 337.52 302.61 337.52 L 322.75 337.52 C 323.36 337.52 323.86 337.02 323.86 336.39 C 323.86 335.77 323.36 335.26 322.75 335.26 Z M 302.61 331.26 C 302 331.26 301.5 331.76 301.5 332.39 C 301.5 333.01 302 333.52 302.61 333.52 L 322.75 333.52 C 323.36 333.52 323.86 333.01 323.86 332.39 C 323.86 331.76 323.36 331.26 322.75 331.26 Z" fill="#00bef2" stroke="none" pointer-events="all"/></g></svg>
