<?xml version="1.0" encoding="UTF-8"?>
<!DOCTYPE svg PUBLIC "-//W3C//DTD SVG 1.1//EN" "http://www.w3.org/Graphics/SVG/1.1/DTD/svg11.dtd">
<svg xmlns="http://www.w3.org/2000/svg" xmlns:xlink="http://www.w3.org/1999/xlink" version="1.1" width="311px" height="311px" viewBox="-0.5 -0.5 351 351"><defs><linearGradient x1="0%" y1="0%" x2="0%" y2="100%" id="mx-gradient-99ccff-1-ffffff-1-s-0"><stop offset="0%" style="stop-color:#99CCFF"/><stop offset="100%" style="stop-color:#ffffff"/></linearGradient><linearGradient x1="0%" y1="0%" x2="0%" y2="100%" id="mx-gradient-ffffff-0.9-ffffff-0.1-s-0"><stop offset="0%" style="stop-color:#ffffff;stop-opacity:0.9"/><stop offset="100%" style="stop-color:#ffffff;stop-opacity:0.1"/></linearGradient><style type="text/css">@import url(https://fonts.googleapis.com/css?family=Nunito);&#xa;</style></defs><g><rect x="0" y="0" width="350" height="350" rx="52.5" ry="52.5" fill="none" stroke="#000000" pointer-events="all"/><path d="M 30 310 L 30 240 L 110 240 L 110 310 Z" fill="#4495d1" stroke="none" pointer-events="all"/><path d="M 67.94 285.02 L 69.32 266.07 L 75.9 266.07 L 79.99 278.14 L 84.44 266.07 L 90.87 266.07 L 92.04 285.02 L 87.24 285.02 L 86.6 270.61 L 81.52 285.02 L 77.64 285.02 L 73.31 270.92 L 72.49 285.02 Z M 53 285.02 L 45.96 266.07 L 51.37 266.07 L 56.03 280.1 L 60.86 266.07 L 66.09 266.07 L 58.73 285.02 Z" fill="#ffffff" stroke="none" pointer-events="all"/><path d="M 240 310 L 240 240 L 320 240 L 320 310 Z" fill="#4495d1" stroke="none" pointer-events="all"/><path d="M 277.94 285.02 L 279.32 266.07 L 285.9 266.07 L 289.99 278.14 L 294.44 266.07 L 300.87 266.07 L 302.04 285.02 L 297.24 285.02 L 296.6 270.61 L 291.52 285.02 L 287.64 285.02 L 283.31 270.92 L 282.49 285.02 Z M 263 285.02 L 255.96 266.07 L 261.37 266.07 L 266.03 280.1 L 270.86 266.07 L 276.09 266.07 L 268.73 285.02 Z" fill="#ffffff" stroke="none" pointer-events="all"/><path d="M 30 150 L 30 80 L 110 80 L 110 150 Z" fill="#4495d1" stroke="none" pointer-events="all"/><path d="M 67.94 125.02 L 69.32 106.07 L 75.9 106.07 L 79.99 118.14 L 84.44 106.07 L 90.87 106.07 L 92.04 125.02 L 87.24 125.02 L 86.6 110.61 L 81.52 125.02 L 77.64 125.02 L 73.31 110.92 L 72.49 125.02 Z M 53 125.02 L 45.96 106.07 L 51.37 106.07 L 56.03 120.1 L 60.86 106.07 L 66.09 106.07 L 58.73 125.02 Z" fill="#ffffff" stroke="none" pointer-events="all"/><path d="M 240 150 L 240 80 L 320 80 L 320 150 Z" fill="#4495d1" stroke="none" pointer-events="all"/><path d="M 277.94 125.02 L 279.32 106.07 L 285.9 106.07 L 289.99 118.14 L 294.44 106.07 L 300.87 106.07 L 302.04 125.02 L 297.24 125.02 L 296.6 110.61 L 291.52 125.02 L 287.64 125.02 L 283.31 110.92 L 282.49 125.02 Z M 263 125.02 L 255.96 106.07 L 261.37 106.07 L 266.03 120.1 L 270.86 106.07 L 276.09 106.07 L 268.73 125.02 Z" fill="#ffffff" stroke="none" pointer-events="all"/><rect x="80" y="120" width="190" height="150" rx="22.5" ry="22.5" fill-opacity="0.5" fill="url(#mx-gradient-99ccff-1-ffffff-1-s-0)" stroke="#000000" stroke-opacity="0.5" pointer-events="all"/><path d="M 103.65 119 Q 79 119 79 143.65 L 79 180 Q 175 225 271 180 L 271 143.65 Q 271 119 246.35 119 Z" fill-opacity="0.5" fill="url(#mx-gradient-ffffff-0.9-ffffff-0.1-s-0)" stroke="none" pointer-events="all"/><rect x="105" y="185" width="150" height="20" fill="none" stroke="none" pointer-events="all"/><g fill="#000000" font-family="Nunito" text-anchor="middle" font-size="16px"><text x="179.5" y="192">Virtual Networking</text></g><rect x="105" y="10" width="150" height="40" fill="none" stroke="none" pointer-events="all"/><g fill="#000000" font-family="Nunito" text-anchor="middle" font-size="24px"><text x="179.5" y="39.5">VM Cluster</text></g></g></svg>
