<svg xmlns="http://www.w3.org/2000/svg" xmlns:xlink="http://www.w3.org/1999/xlink" version="1.1" width="311px" height="311px" viewBox="-0.5 -0.5 351 351"><defs><style type="text/css">@import url(https://fonts.googleapis.com/css?family=Nunito);</style></defs><g><rect x="0" y="0" width="350" height="350" rx="52.5" ry="52.5" fill="none" stroke="#000" pointer-events="all"/><path d="M 30 310 L 30 240 L 110 240 L 110 310 Z" fill="#4495d1" stroke="none" pointer-events="all"/><path d="M 67.94 285.02 L 69.32 266.07 L 75.9 266.07 L 79.99 278.14 L 84.44 266.07 L 90.87 266.07 L 92.04 285.02 L 87.24 285.02 L 86.6 270.61 L 81.52 285.02 L 77.64 285.02 L 73.31 270.92 L 72.49 285.02 Z M 53 285.02 L 45.96 266.07 L 51.37 266.07 L 56.03 280.1 L 60.86 266.07 L 66.09 266.07 L 58.73 285.02 Z" fill="#fff" stroke="none" pointer-events="all"/><path d="M 240 310 L 240 240 L 320 240 L 320 310 Z" fill="#4495d1" stroke="none" pointer-events="all"/><path d="M 277.94 285.02 L 279.32 266.07 L 285.9 266.07 L 289.99 278.14 L 294.44 266.07 L 300.87 266.07 L 302.04 285.02 L 297.24 285.02 L 296.6 270.61 L 291.52 285.02 L 287.64 285.02 L 283.31 270.92 L 282.49 285.02 Z M 263 285.02 L 255.96 266.07 L 261.37 266.07 L 266.03 280.1 L 270.86 266.07 L 276.09 266.07 L 268.73 285.02 Z" fill="#fff" stroke="none" pointer-events="all"/><path d="M 30 150 L 30 80 L 110 80 L 110 150 Z" fill="#4495d1" stroke="none" pointer-events="all"/><path d="M 67.94 125.02 L 69.32 106.07 L 75.9 106.07 L 79.99 118.14 L 84.44 106.07 L 90.87 106.07 L 92.04 125.02 L 87.24 125.02 L 86.6 110.61 L 81.52 125.02 L 77.64 125.02 L 73.31 110.92 L 72.49 125.02 Z M 53 125.02 L 45.96 106.07 L 51.37 106.07 L 56.03 120.1 L 60.86 106.07 L 66.09 106.07 L 58.73 125.02 Z" fill="#fff" stroke="none" pointer-events="all"/><path d="M 240 150 L 240 80 L 320 80 L 320 150 Z" fill="#4495d1" stroke="none" pointer-events="all"/><path d="M 277.94 125.02 L 279.32 106.07 L 285.9 106.07 L 289.99 118.14 L 294.44 106.07 L 300.87 106.07 L 302.04 125.02 L 297.24 125.02 L 296.6 110.61 L 291.52 125.02 L 287.64 125.02 L 283.31 110.92 L 282.49 125.02 Z M 263 125.02 L 255.96 106.07 L 261.37 106.07 L 266.03 120.1 L 270.86 106.07 L 276.09 106.07 L 268.73 125.02 Z" fill="#fff" stroke="none" pointer-events="all"/><rect x="105" y="10" width="150" height="40" fill="none" stroke="none" pointer-events="all"/><g fill="#000" font-family="Nunito" text-anchor="middle" font-size="24"><text x="179.5" y="39.5">VM Cluster</text></g></g></svg>
