<?xml version="1.0" encoding="UTF-8"?>
<!DOCTYPE svg PUBLIC "-//W3C//DTD SVG 1.1//EN" "http://www.w3.org/Graphics/SVG/1.1/DTD/svg11.dtd">
<svg xmlns="http://www.w3.org/2000/svg" xmlns:xlink="http://www.w3.org/1999/xlink" version="1.1" width="386px" height="161px" viewBox="-0.5 -0.5 386 161"><defs><style type="text/css">@import url(https://fonts.googleapis.com/css?family=Nunito);&#xa;</style></defs><g><path d="M 175 40 C 119 40 105 80 149.8 88 C 105 105.6 155.4 144 191.8 128 C 217 160 301 160 329 128 C 385 128 385 96 350 80 C 385 48 329 16 280 32 C 245 8 189 8 175 40 Z" fill="none" stroke="#000000" stroke-opacity="0.5" stroke-miterlimit="10" pointer-events="all"/><ellipse cx="315" cy="75" rx="15" ry="15" fill-opacity="0.5" fill="#008a00" stroke="#005700" stroke-opacity="0.5" pointer-events="none"/><g fill="#008A00" font-family="Nunito" font-weight="bold" pointer-events="none" text-anchor="middle" font-size="8px"><text x="314.5" y="102.5">vL3</text></g><ellipse cx="195" cy="75" rx="15" ry="15" fill-opacity="0.5" fill="#008a00" stroke="#005700" stroke-opacity="0.5" pointer-events="none"/><g fill="#008A00" font-family="Nunito" font-weight="bold" pointer-events="none" text-anchor="middle" font-size="8px"><text x="194.5" y="102.5">Envoy</text></g><path d="M 251.64 22.05 C 251.64 19.83 254.16 18.04 257.26 18.04 C 258.76 18.04 260.19 18.46 261.24 19.21 C 262.3 19.96 262.89 20.98 262.89 22.05 L 262.89 127.93 C 262.89 129 262.3 130.02 261.24 130.77 C 260.19 131.52 258.76 131.94 257.26 131.94 C 254.16 131.94 251.64 130.15 251.64 127.93 Z" fill-opacity="0.5" fill="#6a00ff" stroke="#000000" stroke-opacity="0.5" stroke-miterlimit="10" transform="rotate(90,257.26,74.99)" pointer-events="none"/><path d="M 262.89 22.05 C 262.89 23.11 262.3 24.13 261.24 24.88 C 260.19 25.63 258.76 26.05 257.26 26.05 C 254.16 26.05 251.64 24.26 251.64 22.05" fill="none" stroke="#000000" stroke-opacity="0.5" stroke-miterlimit="10" transform="rotate(90,257.26,74.99)" pointer-events="none"/><ellipse cx="20" cy="75" rx="15" ry="15" fill-opacity="0.5" fill="#0050ef" stroke="#001dbc" stroke-opacity="0.5" pointer-events="none"/><path d="M 102.2 -3.8 C 102.2 -6.02 104.72 -7.81 107.83 -7.81 C 109.32 -7.81 110.75 -7.39 111.8 -6.64 C 112.86 -5.89 113.45 -4.87 113.45 -3.8 L 113.45 153.81 C 113.45 154.88 112.86 155.9 111.8 156.65 C 110.75 157.4 109.32 157.82 107.83 157.82 C 104.72 157.82 102.2 156.03 102.2 153.81 Z" fill-opacity="0.5" fill="#6a00ff" stroke="#000000" stroke-opacity="0.5" stroke-miterlimit="10" transform="rotate(90,107.83,75.01)" pointer-events="none"/><path d="M 113.45 -3.8 C 113.45 -2.74 112.86 -1.72 111.8 -0.97 C 110.75 -0.22 109.32 0.2 107.83 0.2 C 104.72 0.2 102.2 -1.59 102.2 -3.8" fill="none" stroke="#000000" stroke-opacity="0.5" stroke-miterlimit="10" transform="rotate(90,107.83,75.01)" pointer-events="none"/><path d="M 35 75 L 180 75" fill="none" stroke="#ffffff" stroke-miterlimit="10" stroke-dasharray="3 3" pointer-events="none"/><g fill="#0050EF" font-family="Nunito" font-weight="bold" pointer-events="none" text-anchor="middle" font-size="8px"><text x="19.5" y="102.5">Client</text></g><g fill="#000000" font-family="Nunito" font-weight="bold" pointer-events="none" text-anchor="middle" font-size="8px"><text x="244.5" y="49.5">service-mesh@finance.example.com</text></g><g fill="#6A00FF" font-family="Nunito" font-weight="bold" pointer-events="none" text-anchor="middle" font-size="8px"><text x="107.33" y="62.5">vWire</text></g><path d="M 210 75 L 300 75" fill="none" stroke="#ffffff" stroke-miterlimit="10" stroke-dasharray="3 3" pointer-events="none"/><g fill="#008A00" font-family="Nunito" pointer-events="none" text-anchor="middle" font-size="6px"><text x="154.5" y="65">service=envoy-proxy</text></g><g fill="#008A00" font-family="Nunito" pointer-events="none" text-anchor="middle" font-size="6px"><text x="283.17" y="65">service=vl3</text></g><g fill="#0050EF" font-family="Nunito" pointer-events="none" text-anchor="middle" font-size="6px"><text x="233.73" y="88">service=envoy-proxy</text></g></g></svg>