<?xml version="1.0" encoding="UTF-8"?>
<!DOCTYPE svg PUBLIC "-//W3C//DTD SVG 1.1//EN" "http://www.w3.org/Graphics/SVG/1.1/DTD/svg11.dtd">
<svg xmlns="http://www.w3.org/2000/svg" xmlns:xlink="http://www.w3.org/1999/xlink" version="1.1" width="611px" viewBox="-0.5 -0.5 261 96"><defs><style type="text/css">@import url(https://fonts.googleapis.com/css?family=Nunito);&#xa;</style></defs><g><ellipse cx="195" cy="48" rx="15" ry="15" fill-opacity="0.5" fill="#008a00" stroke="#005700" stroke-opacity="0.5" pointer-events="none"/><g fill="#008A00" font-family="Nunito" font-weight="bold" pointer-events="none" text-anchor="middle" font-size="8px"><text x="194.5" y="75.5">Endpoint</text></g><path d="M 158.75 24.25 C 131.75 24.25 125 48 146.6 52.75 C 125 63.2 149.3 86 166.85 76.5 C 179 95.5 219.5 95.5 233 76.5 C 260 76.5 260 57.5 243.13 48 C 260 29 233 10 209.38 19.5 C 192.5 5.25 165.5 5.25 158.75 24.25 Z" fill="none" stroke="#000000" stroke-opacity="0.5" stroke-miterlimit="10" pointer-events="none"/><ellipse cx="20" cy="48" rx="15" ry="15" fill-opacity="0.5" fill="#0050ef" stroke="#001dbc" stroke-opacity="0.5" pointer-events="none"/><path d="M 102.2 -30.8 C 102.2 -33.02 104.72 -34.81 107.83 -34.81 C 109.32 -34.81 110.75 -34.39 111.8 -33.64 C 112.86 -32.89 113.45 -31.87 113.45 -30.8 L 113.45 126.81 C 113.45 127.88 112.86 128.9 111.8 129.65 C 110.75 130.4 109.32 130.82 107.83 130.82 C 104.72 130.82 102.2 129.03 102.2 126.81 Z" fill-opacity="0.5" fill="#6a00ff" stroke="#000000" stroke-opacity="0.5" stroke-miterlimit="10" transform="rotate(90,107.83,48.01)" pointer-events="none"/><path d="M 113.45 -30.8 C 113.45 -29.74 112.86 -28.72 111.8 -27.97 C 110.75 -27.22 109.32 -26.8 107.83 -26.8 C 104.72 -26.8 102.2 -28.59 102.2 -30.8" fill="none" stroke="#000000" stroke-opacity="0.5" stroke-miterlimit="10" transform="rotate(90,107.83,48.01)" pointer-events="none"/><path d="M 35 48 L 180 48" fill="none" stroke="#ffffff" stroke-miterlimit="10" stroke-dasharray="3 3" pointer-events="none"/><g fill="#0050EF" font-family="Nunito" font-weight="bold" pointer-events="none" text-anchor="middle" font-size="8px"><text x="19.5" y="75.5">Client</text></g><g fill="#000000" font-family="Nunito" font-weight="bold" pointer-events="none" text-anchor="middle" font-size="8px"><text x="192" y="25.5">Network Service </text></g><g fill="#6A00FF" font-family="Nunito" font-weight="bold" pointer-events="none" text-anchor="middle" font-size="8px"><text x="107.33" y="35.5">vWire</text></g></g></svg>
