<?xml version="1.0" encoding="UTF-8"?>
<!DOCTYPE svg PUBLIC "-//W3C//DTD SVG 1.1//EN" "http://www.w3.org/Graphics/SVG/1.1/DTD/svg11.dtd">
<svg xmlns="http://www.w3.org/2000/svg" xmlns:xlink="http://www.w3.org/1999/xlink" version="1.1" width="261px" height="154px" viewBox="-0.5 -0.5 261 154"><defs><style type="text/css">@import url(https://fonts.googleapis.com/css?family=Nunito);&#xa;</style></defs><g><path d="M 158.75 81.25 C 131.75 81.25 125 105 146.6 109.75 C 125 120.2 149.3 143 166.85 133.5 C 179 152.5 219.5 152.5 233 133.5 C 260 133.5 260 114.5 243.13 105 C 260 86 233 67 209.38 76.5 C 192.5 62.25 165.5 62.25 158.75 81.25 Z" fill="none" stroke="#000000" stroke-opacity="0.5" stroke-miterlimit="10" pointer-events="all"/><ellipse cx="20" cy="105" rx="15" ry="15" fill-opacity="0.5" fill="#0050ef" stroke="#001dbc" stroke-opacity="0.5" pointer-events="all"/><path d="M 85.63 42.76 C 85.63 40.54 88.15 38.75 91.25 38.75 C 92.75 38.75 94.18 39.17 95.23 39.92 C 96.29 40.67 96.88 41.69 96.88 42.76 L 96.88 167.24 C 96.88 168.31 96.29 169.33 95.23 170.08 C 94.18 170.83 92.75 171.25 91.25 171.25 C 88.15 171.25 85.63 169.46 85.63 167.24 Z" fill-opacity="0.5" fill="#6a00ff" stroke="#000000" stroke-opacity="0.5" stroke-miterlimit="10" transform="rotate(90,91.25,105)" pointer-events="all"/><path d="M 96.88 42.76 C 96.88 43.82 96.29 44.84 95.23 45.59 C 94.18 46.34 92.75 46.76 91.25 46.76 C 88.15 46.76 85.63 44.97 85.63 42.76" fill="none" stroke="#000000" stroke-opacity="0.5" stroke-miterlimit="10" transform="rotate(90,91.25,105)" pointer-events="all"/><path d="M 35 105 L 155 105" fill="none" stroke="#ffffff" stroke-miterlimit="10" stroke-dasharray="3 3" pointer-events="stroke"/><rect x="0" y="120" width="40" height="20" fill="none" stroke="none" pointer-events="all"/><g fill="#0050EF" font-family="Nunito" font-weight="bold" text-anchor="middle" font-size="8px"><text x="19.5" y="132.5">Client</text></g><path d="M 20 90 L 68.64 26.31" fill="none" stroke="#000000" stroke-miterlimit="10" pointer-events="stroke"/><path d="M 71.82 22.14 L 70.35 29.83 L 68.64 26.31 L 64.79 25.58 Z" fill="#000000" stroke="#000000" stroke-miterlimit="10" pointer-events="all"/><rect x="72.5" y="0" width="60" height="42.5" rx="6.38" ry="6.38" fill-opacity="0.5" fill="#0070c07f" stroke="none" pointer-events="all"/><g fill="#000000" font-family="Nunito" text-anchor="middle" font-size="8px"><text x="102" y="13.5">NSM</text></g><rect x="161.25" y="70" width="62.5" height="20" fill="none" stroke="none" pointer-events="all"/><g fill="#000000" font-family="Nunito" font-weight="bold" text-anchor="middle" font-size="8px"><text x="192" y="82.5">Network Service </text></g><rect x="15" y="37.5" width="40" height="20" fill="none" stroke="none" pointer-events="all"/><g fill="#000000" font-family="Nunito" font-weight="bold" text-anchor="middle" font-size="5px"><text x="34.5" y="48.5">Request</text></g><path d="M 72.5 42.5 L 34.61 89.44" fill="none" stroke="#000000" stroke-miterlimit="10" pointer-events="stroke"/><path d="M 31.31 93.52 L 32.98 85.88 L 34.61 89.44 L 38.43 90.28 Z" fill="#000000" stroke="#000000" stroke-miterlimit="10" pointer-events="all"/></g></svg>