<?xml version="1.0" encoding="UTF-8"?>
<!DOCTYPE svg PUBLIC "-//W3C//DTD SVG 1.1//EN" "http://www.w3.org/Graphics/SVG/1.1/DTD/svg11.dtd">
<svg xmlns="http://www.w3.org/2000/svg" xmlns:xlink="http://www.w3.org/1999/xlink" version="1.1" width="346px" height="185px" viewBox="-0.5 -0.5 346 185"><defs><style type="text/css">@import url(https://fonts.googleapis.com/css?family=Nunito);&#xa;</style></defs><g><path d="M 180 32.5 C 136 32.5 125 65 160.2 71.5 C 125 85.8 164.6 117 193.2 104 C 213 130 279 130 301 104 C 345 104 345 78 317.5 65 C 345 39 301 13 262.5 26 C 235 6.5 191 6.5 180 32.5 Z" fill="none" stroke="#000000" stroke-opacity="0.5" stroke-miterlimit="10" pointer-events="all"/><ellipse cx="275" cy="65" rx="15" ry="15" fill-opacity="0.5" fill="#008a00" stroke="#005700" stroke-opacity="0.5" pointer-events="none"/><g fill="#008A00" font-family="Nunito" font-weight="bold" pointer-events="none" text-anchor="middle" font-size="8px"><text x="274.5" y="92.5">vL3</text></g><ellipse cx="195" cy="65" rx="15" ry="15" fill-opacity="0.5" fill="#008a00" stroke="#005700" stroke-opacity="0.5" pointer-events="none"/><g fill="#008A00" font-family="Nunito" font-weight="bold" pointer-events="none" text-anchor="middle" font-size="8px"><text x="194.5" y="92.5">IPS</text></g><path d="M 233.59 30.1 C 233.59 27.88 236.11 26.09 239.22 26.09 C 240.71 26.09 242.14 26.51 243.19 27.26 C 244.25 28.01 244.84 29.03 244.84 30.1 L 244.84 99.89 C 244.84 100.96 244.25 101.98 243.19 102.73 C 242.14 103.48 240.71 103.9 239.22 103.9 C 236.11 103.9 233.59 102.11 233.59 99.89 Z" fill-opacity="0.5" fill="#6a00ff" stroke="#000000" stroke-opacity="0.5" stroke-miterlimit="10" transform="rotate(90,239.22,64.99)" pointer-events="none"/><path d="M 244.84 30.1 C 244.84 31.16 244.25 32.18 243.19 32.93 C 242.14 33.68 240.71 34.1 239.22 34.1 C 236.11 34.1 233.59 32.31 233.59 30.1" fill="none" stroke="#000000" stroke-opacity="0.5" stroke-miterlimit="10" transform="rotate(90,239.22,64.99)" pointer-events="none"/><path d="M 102.2 -13.8 C 102.2 -16.02 104.72 -17.81 107.83 -17.81 C 109.32 -17.81 110.75 -17.39 111.8 -16.64 C 112.86 -15.89 113.45 -14.87 113.45 -13.8 L 113.45 143.81 C 113.45 144.88 112.86 145.9 111.8 146.65 C 110.75 147.4 109.32 147.82 107.83 147.82 C 104.72 147.82 102.2 146.03 102.2 143.81 Z" fill-opacity="0.5" fill="#6a00ff" stroke="#000000" stroke-opacity="0.5" stroke-miterlimit="10" transform="rotate(90,107.83,65.01)" pointer-events="none"/><path d="M 113.45 -13.8 C 113.45 -12.74 112.86 -11.72 111.8 -10.97 C 110.75 -10.22 109.32 -9.8 107.83 -9.8 C 104.72 -9.8 102.2 -11.59 102.2 -13.8" fill="none" stroke="#000000" stroke-opacity="0.5" stroke-miterlimit="10" transform="rotate(90,107.83,65.01)" pointer-events="none"/><path d="M 35 65 L 180 65" fill="none" stroke="#ffffff" stroke-miterlimit="10" stroke-dasharray="3 3" pointer-events="none"/><g fill="#000000" font-family="Nunito" font-weight="bold" pointer-events="none" text-anchor="middle" font-size="8px"><text x="239.5" y="38.59">secure-vl3@sales.example.com</text></g><g fill="#6A00FF" font-family="Nunito" font-weight="bold" pointer-events="none" text-anchor="middle" font-size="8px"><text x="107.33" y="52.5">vWire</text></g><path d="M 210 65 L 260 65" fill="none" stroke="#ffffff" stroke-miterlimit="10" stroke-dasharray="3 3" pointer-events="none"/><ellipse cx="20" cy="65" rx="15" ry="15" fill-opacity="0.5" fill="#0050ef" stroke="#001dbc" stroke-opacity="0.5" pointer-events="none"/><g fill="#0050EF" font-family="Nunito" font-weight="bold" pointer-events="none" text-anchor="middle" font-size="8px"><text x="19.5" y="92.5">Client</text></g><path d="M 196.72 30.1 C 196.72 27.88 199.24 26.09 202.35 26.09 C 203.84 26.09 205.27 26.51 206.32 27.26 C 207.38 28.01 207.97 29.03 207.97 30.1 L 207.97 187.08 C 207.97 188.15 207.38 189.17 206.32 189.92 C 205.27 190.67 203.84 191.09 202.35 191.09 C 199.24 191.09 196.72 189.3 196.72 187.08 Z" fill-opacity="0.5" fill="#6a00ff" stroke="#000000" stroke-opacity="0.5" stroke-miterlimit="10" transform="rotate(63,202.35,108.59)" pointer-events="none"/><path d="M 207.97 30.1 C 207.97 31.16 207.38 32.18 206.32 32.93 C 205.27 33.68 203.84 34.1 202.35 34.1 C 199.24 34.1 196.72 32.31 196.72 30.1" fill="none" stroke="#000000" stroke-opacity="0.5" stroke-miterlimit="10" transform="rotate(63,202.35,108.59)" pointer-events="none"/><path d="M 137.99 140.99 L 267.39 75.61" fill="none" stroke="#ffffff" stroke-miterlimit="10" stroke-dasharray="3 3" pointer-events="none"/><ellipse cx="125" cy="149" rx="15" ry="15" fill-opacity="0.5" fill="#0050ef" stroke="#001dbc" stroke-opacity="0.5" pointer-events="none"/><g fill="#0050EF" font-family="Nunito" font-weight="bold" pointer-events="none" text-anchor="middle" font-size="8px"><text x="124.5" y="176.5">Client</text></g><g fill="#0050EF" font-family="Nunito" pointer-events="none" font-size="6px"><text x="41.5" y="78.5">app=foo</text><text x="41.5" y="85.5">version=v1.1</text></g><g fill="#0050EF" font-family="Nunito" pointer-events="none" font-size="6px"><text x="146.5" y="157.5">app=bar</text><text x="146.5" y="164.5">version=v1.2</text></g><g fill="#008A00" font-family="Nunito" pointer-events="none" text-anchor="middle" font-size="6px"><text x="164.5" y="56.5">provides: ips</text></g><g fill="#008A00" font-family="Nunito" pointer-events="none" text-anchor="middle" font-size="6px"><text x="244.5" y="56.5">provides: vl3</text></g><g fill="#0050EF" font-family="Nunito" pointer-events="none" text-anchor="middle" font-size="6px"><text x="224.34" y="77.59">provided: ips</text></g></g></svg>