<svg xmlns="http://www.w3.org/2000/svg" xmlns:xlink="http://www.w3.org/1999/xlink" version="1.1" width="611px"  viewBox="-0.5 -0.5 201 91"><defs><style type="text/css">@import url(https://fonts.googleapis.com/css?family=Nunito);</style></defs><g><ellipse cx="20" cy="55" rx="15" ry="15" fill-opacity=".5" fill="#0050ef" stroke="#001dbc" stroke-opacity=".5" pointer-events="all"/><ellipse cx="180" cy="55" rx="15" ry="15" fill-opacity=".5" fill="#008a00" stroke="#005700" stroke-opacity=".5" pointer-events="all"/><path d="M 96.88 -18.49 C 96.88 -20.71 99.4 -22.5 102.5 -22.5 C 104 -22.5 105.43 -22.08 106.48 -21.33 C 107.54 -20.58 108.13 -19.56 108.13 -18.49 L 108.13 128.49 C 108.13 129.56 107.54 130.58 106.48 131.33 C 105.43 132.08 104 132.5 102.5 132.5 C 99.4 132.5 96.88 130.71 96.88 128.49 Z" fill-opacity=".5" fill="#6a00ff" stroke="#000" stroke-opacity=".5" stroke-miterlimit="10" transform="rotate(90,102.5,55)" pointer-events="all"/><path d="M 108.13 -18.49 C 108.13 -17.43 107.54 -16.41 106.48 -15.66 C 105.43 -14.91 104 -14.49 102.5 -14.49 C 99.4 -14.49 96.88 -16.28 96.88 -18.49" fill="none" stroke="#000" stroke-opacity=".5" stroke-miterlimit="10" transform="rotate(90,102.5,55)" pointer-events="all"/><path d="M 35 55 L 165 55" fill="none" stroke="#fff" stroke-miterlimit="10" stroke-dasharray="3 3" pointer-events="stroke"/><rect x="0" y="70" width="40" height="20" fill="none" stroke="none" pointer-events="all"/><g fill="#0050EF" font-family="Nunito" font-weight="bold" text-anchor="middle" font-size="8"><text x="19.5" y="82.5">Client</text></g><rect x="160" y="70" width="40" height="20" fill="none" stroke="none" pointer-events="all"/><g fill="#008A00" font-family="Nunito" font-weight="bold" text-anchor="middle" font-size="8"><text x="179.5" y="82.5">Endpoint</text></g><rect x="79.07" y="0" width="40" height="20" fill="none" stroke="none" pointer-events="all"/><g fill="#6A00FF" font-family="Nunito" font-weight="bold" text-anchor="middle" font-size="8"><text x="98.57" y="12.5">vWire</text></g><g fill="#000" font-family="Nunito" pointer-events="none" text-anchor="middle" font-size="8"><text x="84.5" y="32.5">Carries</text></g><rect x="70" y="20" width="60" height="20" fill-opacity=".5" fill="#6a00ff" stroke="#000" stroke-opacity=".5" pointer-events="none"/><g fill="#FFF" font-family="Nunito" pointer-events="none" text-anchor="middle" font-size="8"><text x="112.63" y="32.5">Packets</text></g></g></svg>
